<svg width="54" height="54" viewBox="0 0 54 54" fill="none" xmlns="http://www.w3.org/2000/svg">
<rect x="1" y="1" width="52" height="52" stroke="#292F33" stroke-width="2"/>
<path d="M36.5176 13.7424C36.5176 25.2248 28.8467 25.0276 30.4999 25.5001C38.6666 27.8335 40.7713 16.6124 41.5413 16.6124C44.3156 16.6124 48 16.1189 48 13.7424C48 11.3635 45.13 8 40.8238 8C38.0483 8 36.5176 11.3635 36.5176 13.7424Z" fill="#77B255"/>
<path d="M6 23.9109C6 25.1989 10.1044 23.0464 11.8334 23.9109C14.1667 25.0776 14.1667 22.8656 14.1667 21.5776C14.1667 20.2895 12.5999 20.4109 10.6667 20.4109C8.73352 20.4109 6 22.6229 6 23.9109Z" fill="#77B255"/>
<path d="M28.4996 29.1667C28.4996 32.3879 29.9918 32.4999 31.8328 32.4999C33.675 32.4999 35.1671 32.3879 35.1671 29.1667C35.1671 28.5962 35.068 27.9662 34.8941 27.3151C34.0891 24.2935 31.6811 20.8331 30.1668 20.8331C28.3258 20.8331 28.4996 25.9455 28.4996 29.1667Z" fill="#77B255"/>
<path d="M18.4997 29.1667C18.4997 32.3879 17.0086 32.4999 15.1676 32.4999C13.3254 32.4999 11.8333 32.3879 11.8333 29.1667C11.8333 28.5962 11.9324 27.9662 12.1074 27.3151C12.9124 24.2935 15.3193 20.8331 16.8336 20.8331C18.6747 20.8331 18.4997 25.9455 18.4997 29.1667Z" fill="#77B255"/>
<path d="M10.6667 22.0002C10.6667 26.6669 16.6739 26.6669 24.0835 26.6669C31.493 26.6669 37.5003 26.6669 37.5003 22.0002C37.5003 14.2687 31.493 8.00012 24.0835 8.00012C16.6739 8.00012 10.6667 14.2687 10.6667 22.0002Z" fill="#3E721D"/>
<path d="M41.0003 11.5001C41.0003 12.1453 41.523 12.6668 42.167 12.6668C42.811 12.6668 43.3336 12.1453 43.3336 11.5001C43.3336 10.855 42.811 10.3335 42.167 10.3335C41.523 10.3335 41.0003 10.855 41.0003 11.5001Z" fill="#292F33"/>
<path d="M20.3886 19.7831C20.3886 23.9726 22.043 24.3331 24.0835 24.3331C26.124 24.3331 27.7772 23.9726 27.7772 19.7831C27.7772 15.5947 26.124 10.333 24.0835 10.333C22.043 10.333 20.3886 15.5947 20.3886 19.7831Z" fill="#5C913B"/>
<path d="M13.0001 18.5002C11.9839 22.5626 13.9147 23.1669 15.9553 23.1669C17.9958 23.1669 18.9104 23.9719 18.9104 19.7835C18.9104 15.5952 20.2136 12.2002 18.1731 12.2002C16.1326 12.2002 14.1667 13.8335 13.0001 18.5002Z" fill="#5C913B"/>
<path d="M29.2555 19.7831C29.2555 23.9726 30.1713 23.1664 32.2118 23.1664C34.2524 23.1664 36.182 22.5633 35.167 18.4997C34.0004 13.833 31.3742 12.1997 29.3336 12.1997C27.292 12.1997 29.2555 15.5947 29.2555 19.7831Z" fill="#5C913B"/>
<path d="M17.2246 45.5811C17.3477 44.8838 17.0049 44.3506 16.1963 43.9814L14.5 43.3047C12.5312 42.4258 11.5967 41.2158 11.6963 39.6748C11.7373 38.96 11.9717 38.3271 12.3994 37.7764C12.8271 37.2256 13.4277 36.7949 14.2012 36.4844C14.9746 36.168 15.8096 36.0156 16.7061 36.0273C17.9424 36.0508 18.9414 36.4199 19.7031 37.1348C20.4648 37.8438 20.8398 38.7959 20.8281 39.9912H18.2617C18.291 39.4111 18.1621 38.96 17.875 38.6377C17.5938 38.3154 17.1543 38.1484 16.5566 38.1367C15.9707 38.125 15.4609 38.2598 15.0273 38.541C14.5938 38.8164 14.3359 39.1973 14.2539 39.6836C14.1426 40.3223 14.5703 40.8291 15.5371 41.2041L16.6973 41.6436L17.3652 41.9512C19.0938 42.8066 19.9023 44.0078 19.791 45.5547C19.7383 46.3105 19.4951 46.9639 19.0615 47.5146C18.6338 48.0596 18.0479 48.4785 17.3037 48.7715C16.5654 49.0645 15.751 49.2021 14.8604 49.1846C13.9521 49.167 13.1436 48.9766 12.4346 48.6133C11.7256 48.25 11.1865 47.7373 10.8174 47.0752C10.4717 46.46 10.3105 45.7568 10.334 44.9658L12.9092 44.9746C12.8271 46.3633 13.5098 47.0693 14.957 47.0928C15.584 47.0928 16.0996 46.9551 16.5039 46.6797C16.9082 46.4043 17.1484 46.0381 17.2246 45.5811ZM28.2637 36.2031H30.8389L29.3359 45.0625C29.2305 45.8711 28.9609 46.5947 28.5273 47.2334C28.0938 47.8721 27.5371 48.3613 26.8574 48.7012C26.1777 49.041 25.4307 49.2021 24.6162 49.1846C23.4092 49.1611 22.4775 48.8037 21.8213 48.1123C21.165 47.4209 20.8545 46.4541 20.8896 45.2119L23.4824 45.2207C23.3945 46.4277 23.8193 47.04 24.7568 47.0576C25.2666 47.0752 25.7002 46.9053 26.0576 46.5479C26.415 46.1904 26.6465 45.6953 26.752 45.0625L28.2637 36.2031ZM37.8965 45.5811C38.0195 44.8838 37.6768 44.3506 36.8682 43.9814L35.1719 43.3047C33.2031 42.4258 32.2686 41.2158 32.3682 39.6748C32.4092 38.96 32.6436 38.3271 33.0713 37.7764C33.499 37.2256 34.0996 36.7949 34.873 36.4844C35.6465 36.168 36.4814 36.0156 37.3779 36.0273C38.6143 36.0508 39.6133 36.4199 40.375 37.1348C41.1367 37.8438 41.5117 38.7959 41.5 39.9912H38.9336C38.9629 39.4111 38.834 38.96 38.5469 38.6377C38.2656 38.3154 37.8262 38.1484 37.2285 38.1367C36.6426 38.125 36.1328 38.2598 35.6992 38.541C35.2656 38.8164 35.0078 39.1973 34.9258 39.6836C34.8145 40.3223 35.2422 40.8291 36.209 41.2041L37.3691 41.6436L38.0371 41.9512C39.7656 42.8066 40.5742 44.0078 40.4629 45.5547C40.4102 46.3105 40.167 46.9639 39.7334 47.5146C39.3057 48.0596 38.7197 48.4785 37.9756 48.7715C37.2373 49.0645 36.4229 49.2021 35.5322 49.1846C34.624 49.167 33.8154 48.9766 33.1064 48.6133C32.3975 48.25 31.8584 47.7373 31.4893 47.0752C31.1436 46.46 30.9824 45.7568 31.0059 44.9658L33.5811 44.9746C33.499 46.3633 34.1816 47.0693 35.6289 47.0928C36.2559 47.0928 36.7715 46.9551 37.1758 46.6797C37.5801 46.4043 37.8203 46.0381 37.8965 45.5811Z" fill="#292F33"/>
</svg>
